<svg xmlns="http://www.w3.org/2000/svg" width="583" height="275" viewBox="0 0 583 275">
  <g id="logovince" transform="translate(-10381.824 -1396.357)">
    <rect id="Rectangle_5" data-name="Rectangle 5" width="583" height="275" transform="translate(10381.824 1396.357)" fill="rgba(255,255,255,0)"/>
    <path id="logovince-2" data-name="logovince" d="M69.572-158a21.243,21.243,0,0,1,9.088,4.074,17.1,17.1,0,0,1,5.537,7.312,20.932,20.932,0,0,1,1.149,9.715,28.3,28.3,0,0,1-4.074,11.491q-3.761,6.686-8.775,8.984t-8.775,0q-3.761-2.3-4.283-7.417a16.456,16.456,0,0,1,2.4-10.133,16.257,16.257,0,0,1,7.626-6.79q4.7-1.985,8.462.313a8.25,8.25,0,0,0-2.716-6.477q-2.925-2.925-8.984-3.97a19.7,19.7,0,0,0-13.371,2.716,21.348,21.348,0,0,0-8.984,10.237,15.049,15.049,0,0,0,.418,13.789q3.552,6.686,11.7,11.909Q67.065-105.562,71.87-96.16t0,21.728a42.417,42.417,0,0,1-7.835,12.118,47.346,47.346,0,0,1-12.013,9.506,51.861,51.861,0,0,1-15.043,5.537,47.991,47.991,0,0,1-16.714.418A22.749,22.749,0,0,1,9.3-51.554a22.951,22.951,0,0,1-6.686-8.67A23.863,23.863,0,0,1,.731-71.193,26.723,26.723,0,0,1,3.969-82.58a24.222,24.222,0,0,1,8.253-9.4q5.119-3.343,9.715-.836Q25.7-90.728,26.22-85.5a15.839,15.839,0,0,1-2.4,10.028,15.862,15.862,0,0,1-7,6.581,9.945,9.945,0,0,1-8.044.522q-.627,3.97,3.761,8.044a23.417,23.417,0,0,0,11.491,5.537,17.585,17.585,0,0,0,7.626,0,27.393,27.393,0,0,0,7.835-2.925,27.646,27.646,0,0,0,6.79-5.328,23.567,23.567,0,0,0,4.7-7.417q3.134-8.357-1.045-14.207T35.726-97.413a31.042,31.042,0,0,1-8.357-8.148,30.744,30.744,0,0,1-4.7-10.446,31.831,31.831,0,0,1-.627-11.491,29.655,29.655,0,0,1,4.074-11.491,36.519,36.519,0,0,1,8.044-9.611,42.118,42.118,0,0,1,10.76-6.686,43.429,43.429,0,0,1,12.222-3.238A39.022,39.022,0,0,1,69.572-158Zm56.2,86.5a34.988,34.988,0,0,1-5.745,9.3,43.154,43.154,0,0,1-8.148,7.417,42.1,42.1,0,0,1-9.611,5.014A29.24,29.24,0,0,1,92.136-47.9q-10.237,0-14.207-6.686t1.462-19.848q1.045-2.507,3.238-7.626t4.492-10.76q2.3-5.641,4.283-10.655t3.029-7.312q1.671-4.179.418-6.79t-6.059-2.612H86.7l4.387-8.984q1.671-.418,3.552-.836a26.575,26.575,0,0,1,3.656-.627,38.9,38.9,0,0,1,4.074-.209q11.909,0,14.834,6.581t-2.716,20.37q-1.254,3.134-3.447,8.566T106.552-84.46q-2.507,6.268-5.223,12.953-1.671,4.179.418,5.85t5.745.94a19.93,19.93,0,0,0,7.835-3.865,23.357,23.357,0,0,0,6.895-8.775Zm8.775-79.6a12.261,12.261,0,0,1-3.761,8.984,12.261,12.261,0,0,1-8.984,3.761,12.5,12.5,0,0,1-9.193-3.761,12.261,12.261,0,0,1-3.761-8.984,12.261,12.261,0,0,1,3.761-8.984,12.5,12.5,0,0,1,9.193-3.761,12.261,12.261,0,0,1,8.984,3.761A12.261,12.261,0,0,1,134.548-151.108Zm18.8,5.014q6.059,0,7.939,4.7t-.836,11.386a29.68,29.68,0,0,1-4.6,8.357h18.385q-.627,1.88-2.3,5.85t-3.761,9.193q-2.089,5.223-4.492,10.864T159.2-85.087q-2.089,5.014-3.656,8.67t-1.985,4.91q-1.671,3.97.418,5.641t5.745,1.045a18.674,18.674,0,0,0,7.835-3.761,23.357,23.357,0,0,0,6.895-8.775L178-71.507a34.988,34.988,0,0,1-5.745,9.3,43.154,43.154,0,0,1-8.148,7.417,42.1,42.1,0,0,1-9.611,5.014,29.24,29.24,0,0,1-10.133,1.88,20.708,20.708,0,0,1-8.67-1.671,11.224,11.224,0,0,1-5.432-5.014,16.2,16.2,0,0,1-1.567-8.357,33.991,33.991,0,0,1,2.925-11.491L148.755-115.8a17.522,17.522,0,0,1-7.939,1.88q-5.85,0-7.73-4.7t1.045-11.386a27.514,27.514,0,0,1,8.044-11.909A17.3,17.3,0,0,1,153.351-146.093Zm60.589,11.282a28.71,28.71,0,0,1,5.223-9.3,43.327,43.327,0,0,1,8.044-7.521,40.559,40.559,0,0,1,9.506-5.119,28.388,28.388,0,0,1,10.028-1.88q10.237,0,14.729,6.79t-.1,19.744q-.418,1.254-1.776,5.119t-3.343,9.4q-1.985,5.537-4.283,12.118T247.472-92.5q-2.194,6.372-4.283,12.013T239.847-71.3q-1.88,5.432-1.254,8.462t3.238,2.925q2.612-.1,6.79-3.656a64.049,64.049,0,0,0,9.611-11.073,133.368,133.368,0,0,0,7.208-11.491q3.656-6.477,7.1-13.162t6.581-13.267q3.134-6.581,5.641-12.013t4.283-9.193a29.7,29.7,0,0,1,2.612-4.805q2.925-4.387,1.462-6.895t-6.268-2.507h-2.089l6.686-9.193q2.3-.209,4.6-.627a33.2,33.2,0,0,1,4.179-.627q2.3-.209,4.387-.209,12.118,0,13.267,6.477t-8.253,20.684l-5.641,8.462q-3.552,5.328-7.208,10.655t-6.79,9.924q-3.134,4.6-4.387,6.477-8.148,11.282-14.52,20.266a147.776,147.776,0,0,1-12.327,15.356,46.907,46.907,0,0,1-12.327,9.715,30.334,30.334,0,0,1-14.311,3.343q-10.237,0-14.834-6.79t-.209-19.952l21.519-60.8q1.254-3.97-.94-5.641a7.083,7.083,0,0,0-5.745-1.045,18.019,18.019,0,0,0-7.626,3.761,20.53,20.53,0,0,0-6.372,8.775Zm127.445,63.3a34.988,34.988,0,0,1-5.745,9.3,43.153,43.153,0,0,1-8.148,7.417,42.1,42.1,0,0,1-9.611,5.014,29.24,29.24,0,0,1-10.133,1.88q-10.237,0-14.207-6.686T295-74.432q1.045-2.507,3.238-7.626t4.492-10.76q2.3-5.641,4.283-10.655t3.029-7.312q1.671-4.179.418-6.79t-6.059-2.612h-2.089l4.387-8.984q1.671-.418,3.552-.836a26.576,26.576,0,0,1,3.656-.627,38.9,38.9,0,0,1,4.074-.209q11.909,0,14.834,6.581T330.1-103.89q-1.254,3.134-3.447,8.566T322.164-84.46q-2.507,6.268-5.223,12.953-1.671,4.179.418,5.85t5.746.94a19.93,19.93,0,0,0,7.835-3.865,23.357,23.357,0,0,0,6.895-8.775Zm8.775-79.6a12.261,12.261,0,0,1-3.761,8.984,12.261,12.261,0,0,1-8.984,3.761,12.5,12.5,0,0,1-9.193-3.761,12.261,12.261,0,0,1-3.761-8.984,12.261,12.261,0,0,1,3.761-8.984,12.5,12.5,0,0,1,9.193-3.761,12.261,12.261,0,0,1,8.984,3.761A12.261,12.261,0,0,1,350.16-151.108Zm6.477,83.362q-1.671,4.387-.418,6.895t6.059,2.507h2.089l-4.178,8.984q-1.671.418-3.552.836a40.243,40.243,0,0,1-7.73.627q-11.909,0-14.938-6.477t2.612-20.266l14.834-36.144q1.88-4.179.627-6.79t-6.059-2.612h-2.089l4.179-8.984q1.671-.418,3.552-.836a26.574,26.574,0,0,1,3.656-.627,38.9,38.9,0,0,1,4.074-.209q14.207,0,15.669,9.82A39.359,39.359,0,0,1,386.1-128.23a30.4,30.4,0,0,1,12.118-2.612q10.237,0,14.207,6.686t-1.462,19.848q-1.045,2.716-2.925,7.417t-3.97,9.715q-2.089,5.014-3.865,9.4t-2.612,6.268q-1.671,3.97.418,5.641t5.745,1.045a18.674,18.674,0,0,0,7.835-3.761,23.358,23.358,0,0,0,6.895-8.775l3.552,5.85a34.989,34.989,0,0,1-5.745,9.3,43.154,43.154,0,0,1-8.148,7.417,42.1,42.1,0,0,1-9.611,5.014,29.24,29.24,0,0,1-10.133,1.88,20.708,20.708,0,0,1-8.67-1.671,11.778,11.778,0,0,1-5.537-5.014,15.5,15.5,0,0,1-1.671-8.357,33.992,33.992,0,0,1,2.925-11.491l13.58-32.592q1.253-3.134.1-4.91a4.264,4.264,0,0,0-3.656-1.88,14.968,14.968,0,0,0-5.954,1.254,19.48,19.48,0,0,0-6.581,4.492q-.418,1.045-.731,2.089t-.731,2.089q-1.254,3.343-3.552,8.775t-4.492,10.969q-2.194,5.537-4.179,10.133T356.636-67.746ZM493.9-71.507q-5.223,11.073-17.863,17.341T446.266-47.9a31.77,31.77,0,0,1-14.938-3.238,23.438,23.438,0,0,1-9.506-8.879,27.038,27.038,0,0,1-3.552-13.267A41.426,41.426,0,0,1,421.4-89.474q8.148-20.266,21.311-30.817a45.638,45.638,0,0,1,29.25-10.551q6.686,0,10.655,3.029a15.177,15.177,0,0,1,5.432,7.835,23.884,23.884,0,0,1,.522,10.76,37.929,37.929,0,0,1-3.865,11.6,43.454,43.454,0,0,1-5.641,8.566,35.607,35.607,0,0,1-5.641,5.328,17.505,17.505,0,0,1-5.119,2.716,14.042,14.042,0,0,1-3.865.731q-5.85,0-7.626-4.6t.731-11.282a29.073,29.073,0,0,1,8.253-11.909,17.569,17.569,0,0,1,11.386-4.179h1.358a2.605,2.605,0,0,1,1.149.209,9.636,9.636,0,0,0-1.149-6.895q-1.776-2.716-5.954-2.716a13.6,13.6,0,0,0-8.148,2.925,40.776,40.776,0,0,0-7.626,7.521,66.021,66.021,0,0,0-6.686,10.342,89.134,89.134,0,0,0-5.119,11.6q-5.641,15.043-1.671,22.355T458.592-59.6a30.539,30.539,0,0,0,9.088-1.462,46.613,46.613,0,0,0,8.984-3.865,42.293,42.293,0,0,0,7.835-5.641,34.9,34.9,0,0,0,5.85-6.79ZM530.463-59.6a30.538,30.538,0,0,0,9.088-1.462,46.612,46.612,0,0,0,8.984-3.865,42.291,42.291,0,0,0,7.835-5.641,34.9,34.9,0,0,0,5.85-6.79l3.552,5.85Q560.549-60.434,547.8-54.166T518.136-47.9A31.77,31.77,0,0,1,503.2-51.136a23.438,23.438,0,0,1-9.506-8.879,27.038,27.038,0,0,1-3.552-13.267,41.427,41.427,0,0,1,3.134-16.192q7.939-20.266,21.206-30.817a46.054,46.054,0,0,1,29.354-10.551q8.566,0,12.953,4.492a17.078,17.078,0,0,1,4.91,10.864,27.572,27.572,0,0,1-2.716,13.58,36.189,36.189,0,0,1-9.924,12.849,33.215,33.215,0,0,1-21.728,7.73H513.958q-2.716,9.4,1.985,15.565T530.463-59.6Zm8.148-61.842a15.56,15.56,0,0,0-4.91,3.761,52.521,52.521,0,0,0-5.745,7.312q-2.925,4.387-5.954,9.82a92.813,92.813,0,0,0-5.328,11.282l7.312.209a12.83,12.83,0,0,0,8.148-3.134,28.046,28.046,0,0,0,6.268-8.984,59.487,59.487,0,0,0,3.97-8.775,28.351,28.351,0,0,0,1.672-7.1q.209-2.925-1.045-4.283T538.611-121.44Z" transform="translate(10390.093 1650.941)" fill="#252525"/>
  </g>
</svg>
